<svg xmlns="http://www.w3.org/2000/svg" viewBox="0 0 46.36 44.79"><defs><style>.cls-1{fill:#5294ff;}</style></defs><g id="Layer_2" data-name="Layer 2"><g id="Layer_1-2" data-name="Layer 1"><path class="cls-1" d="M12.61,10.11H33.75a1.47,1.47,0,0,1,1.19,2.34L24.88,26.28a1.47,1.47,0,0,0,1.19,2.34h8.87a1.44,1.44,0,0,0,1.18-.6l10-13.69a1.49,1.49,0,0,0,0-1.73L37.35.61A1.48,1.48,0,0,0,36.16,0h-26A1.45,1.45,0,0,0,9,.61L.28,12.6a1.49,1.49,0,0,0,0,1.73L22,44.18a1.47,1.47,0,0,0,2.38,0l4.43-6.1a1.46,1.46,0,0,0,0-1.73L11.42,12.45A1.47,1.47,0,0,1,12.61,10.11Z"/></g></g></svg>